<?xml version="1.0" encoding="UTF-8"?>
<!DOCTYPE svg PUBLIC "-//W3C//DTD SVG 1.1//EN" "http://www.w3.org/Graphics/SVG/1.1/DTD/svg11.dtd">
<svg xmlns="http://www.w3.org/2000/svg" version="1.1" width="274px" height="175px" style="shape-rendering:geometricPrecision; text-rendering:geometricPrecision; image-rendering:optimizeQuality; fill-rule:evenodd; clip-rule:evenodd" xmlns:xlink="http://www.w3.org/1999/xlink">
<g><path style="opacity:1" fill="#556ee4" d="M 64.5,5.5 C 68.2343,5.32274 71.9009,5.65608 75.5,6.5C 77.8863,7.92002 80.553,8.92002 83.5,9.5C 80.9557,11.6112 80.9557,13.7779 83.5,16C 79.6437,16.1773 75.977,16.6773 72.5,17.5C 66.253,17.4599 61.253,19.7933 57.5,24.5C 54.2802,23.491 53.6135,21.491 55.5,18.5C 56.4489,14.3435 57.1156,10.0102 57.5,5.5C 59.8333,5.5 62.1667,5.5 64.5,5.5 Z"/></g>
<g><path style="opacity:1" fill="#99b4eb" d="M 64.5,5.5 C 62.1667,5.5 59.8333,5.5 57.5,5.5C 57.1156,10.0102 56.4489,14.3435 55.5,18.5C 55.3119,13.1369 52.6452,10.9703 47.5,12C 45.9221,13.0945 44.2554,13.9278 42.5,14.5C 46.5812,10.6143 51.2479,7.44759 56.5,5C 59.367,4.19927 62.0336,4.36594 64.5,5.5 Z"/></g>
<g><path style="opacity:1" fill="#cbeafd" d="M 55.5,18.5 C 53.6135,21.491 54.2802,23.491 57.5,24.5C 57.5,25.8333 57.5,27.1667 57.5,28.5C 55.2646,28.2053 53.2646,28.5386 51.5,29.5C 48.1938,33.4729 44.5271,37.1396 40.5,40.5C 40.2089,39.3509 39.3756,38.6842 38,38.5C 27.2472,42.7518 18.7472,49.7518 12.5,59.5C 10.1667,60.8333 7.83333,60.8333 5.5,59.5C 12.9641,44.9242 22.6308,31.9242 34.5,20.5C 36.3129,17.3528 38.9796,15.3528 42.5,14.5C 44.2554,13.9278 45.9221,13.0945 47.5,12C 52.6452,10.9703 55.3119,13.1369 55.5,18.5 Z"/></g>
<g><path style="opacity:1" fill="#cad7fd" d="M 89.5,29.5 C 89.1943,26.0553 89.1943,22.3887 89.5,18.5C 89.1489,16.1305 88.9822,13.7972 89,11.5C 92.1078,17.3921 92.2745,23.3921 89.5,29.5 Z"/></g>
<g><path style="opacity:1" fill="#ddca71" d="M 217.5,21.5 C 214.477,18.8216 213.81,19.4882 215.5,23.5C 215.5,24.1667 215.167,24.5 214.5,24.5C 214.264,21.3793 212.931,19.046 210.5,17.5C 210.511,15.3141 211.511,14.4808 213.5,15C 215.734,16.6379 217.067,18.8045 217.5,21.5 Z"/></g>
<g><path style="opacity:1" fill="#edc21e" d="M 208.5,31.5 C 208.508,28.4552 208.841,25.4552 209.5,22.5C 210.268,21.7375 210.768,20.7375 211,19.5C 211.667,24.1667 211.667,28.8333 211,33.5C 210.292,32.6195 209.458,31.9528 208.5,31.5 Z"/></g>
<g><path style="opacity:1" fill="#f4640c" d="M 234.5,23.5 C 234.489,25.0174 233.823,26.1841 232.5,27C 228.405,29.2202 224.072,29.8869 219.5,29C 218.023,27.1879 216.69,25.3545 215.5,23.5C 213.81,19.4882 214.477,18.8216 217.5,21.5C 221.822,23.0695 224.822,21.5695 226.5,17C 232.231,14.7977 234.898,16.9644 234.5,23.5 Z"/></g>
<g><path style="opacity:1" fill="#fcba0c" d="M 250.5,21.5 C 249.158,24.4683 249.825,26.8016 252.5,28.5C 253.341,30.3792 253.675,32.3792 253.5,34.5C 253.023,39.742 253.856,44.742 256,49.5C 258.041,50.4231 260.208,50.7564 262.5,50.5C 261.5,51.1667 260.5,51.8333 259.5,52.5C 257.83,52.2488 256.33,51.5822 255,50.5C 254.178,54.6947 251.845,56.3614 248,55.5C 247.667,51.1667 247.333,46.8333 247,42.5C 246.861,39.5547 245.694,37.2214 243.5,35.5C 238.02,33.9026 233.353,35.2359 229.5,39.5C 226.157,41.6678 222.491,42.5012 218.5,42C 217.703,38.2546 217.203,34.4213 217,30.5C 216.764,28.1887 215.931,26.1887 214.5,24.5C 215.167,24.5 215.5,24.1667 215.5,23.5C 216.69,25.3545 218.023,27.1879 219.5,29C 224.072,29.8869 228.405,29.2202 232.5,27C 233.823,26.1841 234.489,25.0174 234.5,23.5C 235.15,23.8039 235.817,24.1373 236.5,24.5C 240.496,22.3364 244.662,20.6697 249,19.5C 249.717,20.0442 250.217,20.7109 250.5,21.5 Z"/></g>
<g><path style="opacity:0.62" fill="#d5d6b0" d="M 250.5,21.5 C 252.163,23.4385 252.829,25.7718 252.5,28.5C 249.825,26.8016 249.158,24.4683 250.5,21.5 Z"/></g>
<g><path style="opacity:1" fill="#6687ef" d="M 51.5,29.5 C 58.5797,29.0393 64.5797,31.3726 69.5,36.5C 67.31,38.8557 65.31,41.3557 63.5,44C 58.5347,46.3259 53.5347,48.6593 48.5,51C 44.7945,55.1037 41.6279,59.6037 39,64.5C 37.871,66.1412 36.371,67.1412 34.5,67.5C 33.5,66.1667 32.5,64.8333 31.5,63.5C 31.1667,63.5 30.8333,63.5 30.5,63.5C 30.1667,62.1667 29.8333,60.8333 29.5,59.5C 30.3213,56.3586 30.8213,53.0252 31,49.5C 34.6671,46.9988 37.8338,43.9988 40.5,40.5C 44.5271,37.1396 48.1938,33.4729 51.5,29.5 Z"/></g>
<g><path style="opacity:1" fill="#5a7dd8" d="M 75.5,6.5 C 80.9298,6.98596 86.2631,7.98596 91.5,9.5C 93.2806,13.6157 93.9473,17.9491 93.5,22.5C 93.6664,30.5069 93.4997,38.5069 93,46.5C 92.7216,45.5842 92.2216,44.9175 91.5,44.5C 90.8166,42.8235 89.4832,42.1568 87.5,42.5C 89.1667,49.5 86.5,52.1667 79.5,50.5C 78.7611,50.631 78.0944,50.4643 77.5,50C 78.6872,48.9805 79.6872,47.8139 80.5,46.5C 81.6888,45.5713 83.0222,45.238 84.5,45.5C 84.5172,43.4352 84.8505,41.4352 85.5,39.5C 87.01,36.3173 88.3433,32.984 89.5,29.5C 92.2745,23.3921 92.1078,17.3921 89,11.5C 88.9822,13.7972 89.1489,16.1305 89.5,18.5C 83.9252,17.5476 78.2586,17.2143 72.5,17.5C 75.977,16.6773 79.6437,16.1773 83.5,16C 80.9557,13.7779 80.9557,11.6112 83.5,9.5C 80.553,8.92002 77.8863,7.92002 75.5,6.5 Z"/></g>
<g><path style="opacity:0.165" fill="#6d7fa1" d="M 93.5,22.5 C 93.8445,31.3813 94.8445,40.048 96.5,48.5C 95.0813,49.4511 93.4147,49.7845 91.5,49.5C 91.5,47.8333 91.5,46.1667 91.5,44.5C 92.2216,44.9175 92.7216,45.5842 93,46.5C 93.4997,38.5069 93.6664,30.5069 93.5,22.5 Z"/></g>
<g><path style="opacity:1" fill="#f26411" d="M 261.5,47.5 C 264.097,48.5244 266.097,49.5244 267.5,50.5C 265.833,50.5 264.167,50.5 262.5,50.5C 260.208,50.7564 258.041,50.4231 256,49.5C 253.856,44.742 253.023,39.742 253.5,34.5C 256.301,33.0796 259.134,32.7463 262,33.5C 262.641,37.1547 262.141,40.6547 260.5,44C 260.648,45.2559 260.982,46.4226 261.5,47.5 Z"/></g>
<g><path style="opacity:1" fill="#f5f8ff" d="M 40.5,40.5 C 37.8338,43.9988 34.6671,46.9988 31,49.5C 30.8213,53.0252 30.3213,56.3586 29.5,59.5C 26.525,59.2866 23.8584,58.2866 21.5,56.5C 18.5504,57.7054 15.5504,58.7054 12.5,59.5C 18.7472,49.7518 27.2472,42.7518 38,38.5C 39.3756,38.6842 40.2089,39.3509 40.5,40.5 Z"/></g>
<g><path style="opacity:1" fill="#f0bf1d" d="M 208.5,32.5 C 209.048,34.3936 210.048,36.0603 211.5,37.5C 210.349,38.731 209.183,38.731 208,37.5C 207.493,38.9961 207.993,40.1627 209.5,41C 208.333,42.1667 207.167,43.3333 206,44.5C 205.517,43.552 205.351,42.552 205.5,41.5C 206.105,38.8733 206.605,36.2066 207,33.5C 207.383,32.944 207.883,32.6107 208.5,32.5 Z"/></g>
<g><path style="opacity:1" fill="#fdc3d8" d="M 240.5,38.5 C 240.167,39.1667 239.833,39.8333 239.5,40.5C 236.011,41.658 232.678,42.9914 229.5,44.5C 228.5,44.1667 227.833,43.5 227.5,42.5C 228.167,41.5 228.833,40.5 229.5,39.5C 231.865,38.4055 234.365,37.7388 237,37.5C 238.385,37.5143 239.551,37.8476 240.5,38.5 Z"/></g>
<g><path style="opacity:1" fill="#e03a05" d="M 243.5,35.5 C 245.594,40.4988 245.927,45.4988 244.5,50.5C 244.663,48.1432 244.497,45.8098 244,43.5C 243.777,41.1192 242.61,39.4525 240.5,38.5C 239.551,37.8476 238.385,37.5143 237,37.5C 234.365,37.7388 231.865,38.4055 229.5,39.5C 233.353,35.2359 238.02,33.9026 243.5,35.5 Z"/></g>
<g><path style="opacity:1" fill="#f57706" d="M 210.5,17.5 C 212.931,19.046 214.264,21.3793 214.5,24.5C 215.931,26.1887 216.764,28.1887 217,30.5C 217.203,34.4213 217.703,38.2546 218.5,42C 222.491,42.5012 226.157,41.6678 229.5,39.5C 228.833,40.5 228.167,41.5 227.5,42.5C 226.522,42.811 225.855,43.4777 225.5,44.5C 226.16,46.8147 227.493,48.4814 229.5,49.5C 228.883,49.6107 228.383,49.944 228,50.5C 225.667,48.8333 223.333,47.1667 221,45.5C 220.308,46.0253 219.808,46.6919 219.5,47.5C 224.728,51.6128 230.395,54.9462 236.5,57.5C 239.979,59.4031 243.646,61.0698 247.5,62.5C 247.5,63.1667 247.167,63.5 246.5,63.5C 243.779,63.0372 241.112,62.3705 238.5,61.5C 233.896,58.8604 229.229,56.1938 224.5,53.5C 222.918,55.5771 221.918,57.9104 221.5,60.5C 217.228,58.2256 213.228,55.5589 209.5,52.5C 207.833,50.1667 205.833,48.1667 203.5,46.5C 203.402,44.4471 204.069,42.7804 205.5,41.5C 205.351,42.552 205.517,43.552 206,44.5C 207.167,43.3333 208.333,42.1667 209.5,41C 207.993,40.1627 207.493,38.9961 208,37.5C 209.183,38.731 210.349,38.731 211.5,37.5C 210.048,36.0603 209.048,34.3936 208.5,32.5C 208.5,32.1667 208.5,31.8333 208.5,31.5C 209.458,31.9528 210.292,32.6195 211,33.5C 211.667,28.8333 211.667,24.1667 211,19.5C 210.768,20.7375 210.268,21.7375 209.5,22.5C 209.366,20.7085 209.699,19.0418 210.5,17.5 Z"/></g>
<g><path style="opacity:1" fill="#fa109a" d="M 239.5,40.5 C 241.085,44.7635 242.419,49.0968 243.5,53.5C 239.729,51.3742 235.729,49.5409 231.5,48C 230.177,47.1841 229.511,46.0174 229.5,44.5C 232.678,42.9914 236.011,41.658 239.5,40.5 Z"/></g>
<g><path style="opacity:1" fill="#83aaf6" d="M 85.5,39.5 C 84.8505,41.4352 84.5172,43.4352 84.5,45.5C 83.0222,45.238 81.6888,45.5713 80.5,46.5C 79.6872,47.8139 78.6872,48.9805 77.5,50C 78.0944,50.4643 78.7611,50.631 79.5,50.5C 75.6092,51.2224 71.6092,52.0557 67.5,53C 64.6667,54.5 62.5,56.6667 61,59.5C 60.5002,69.828 60.3335,80.1613 60.5,90.5C 60.1667,90.5 59.8333,90.5 59.5,90.5C 59.6663,83.825 59.4996,77.1583 59,70.5C 53.8871,75.4426 49.0537,80.4426 44.5,85.5C 41.4208,82.7435 39.0875,79.4101 37.5,75.5C 40.2103,76.407 42.377,75.407 44,72.5C 44.2695,69.7759 44.7695,67.1092 45.5,64.5C 50.6818,59.4853 55.6818,54.3186 60.5,49C 66.0199,45.7854 72.0199,44.1187 78.5,44C 79.9651,41.2015 82.1318,39.0348 85,37.5C 85.4643,38.0944 85.631,38.7611 85.5,39.5 Z"/></g>
<g><path style="opacity:1" fill="#efeef1" d="M 91.5,44.5 C 91.5,46.1667 91.5,47.8333 91.5,49.5C 93.4147,49.7845 95.0813,49.4511 96.5,48.5C 120.365,44.7266 139.531,52.3933 154,71.5C 165.72,53.3902 182.22,45.0569 203.5,46.5C 205.833,48.1667 207.833,50.1667 209.5,52.5C 183.665,48.0778 165.665,57.7444 155.5,81.5C 153.883,78.2157 151.55,75.5491 148.5,73.5C 147.833,72.1667 146.833,71.1667 145.5,70.5C 138.505,59.8258 128.505,53.9924 115.5,53C 101.079,52.5276 86.7459,53.5276 72.5,56C 69.804,56.6898 67.6374,58.1898 66,60.5C 64.8477,76.0776 64.3477,91.7442 64.5,107.5C 64.5001,122.67 64.8334,137.67 65.5,152.5C 66.4194,155.089 68.086,157.089 70.5,158.5C 72.9619,161.464 75.6286,164.297 78.5,167C 93.5794,166.325 108.579,164.658 123.5,162C 134.462,159.527 143.462,154.027 150.5,145.5C 153.92,141.421 156.92,137.088 159.5,132.5C 159.932,133.71 160.599,134.71 161.5,135.5C 164.792,140.46 168.792,144.793 173.5,148.5C 180.783,157.314 190.116,162.814 201.5,165C 213.684,167.432 225.684,166.765 237.5,163C 239.049,161.786 240.215,160.286 241,158.5C 241.667,151.167 241.667,143.833 241,136.5C 238.295,133.964 235.795,131.297 233.5,128.5C 232.04,126.537 230.373,124.704 228.5,123C 221.453,122.641 214.453,123.141 207.5,124.5C 204.783,124.386 202.116,124.052 199.5,123.5C 199.334,116.492 199.5,109.492 200,102.5C 201.151,97.0128 204.485,94.0128 210,93.5C 216.264,94.4772 222.097,96.6439 227.5,100C 231.793,101.202 235.293,100.035 238,96.5C 239.804,91.4203 241.804,86.4203 244,81.5C 244.847,77.9277 244.347,74.5943 242.5,71.5C 244.965,71.767 247.299,72.4336 249.5,73.5C 250.673,76.8465 250.507,80.1798 249,83.5C 246.449,89.6631 243.616,95.6631 240.5,101.5C 233.138,106.87 225.804,106.703 218.5,101C 215.471,100.268 212.471,99.4348 209.5,98.5C 207.073,99.7656 205.573,101.766 205,104.5C 204.501,109.489 204.334,114.489 204.5,119.5C 212.498,118.664 220.498,118.164 228.5,118C 236.076,122.575 241.909,128.741 246,136.5C 246.667,144.5 246.667,152.5 246,160.5C 243.556,166.481 239.056,169.648 232.5,170C 202.497,175.783 178.33,166.616 160,142.5C 150.847,155.833 138.347,164.333 122.5,168C 108.975,169.711 95.4751,171.545 82,173.5C 73.2477,170.089 66.2477,164.422 61,156.5C 60.5065,154.866 60.3398,153.199 60.5,151.5C 60.5,133.5 60.5,115.5 60.5,97.5C 60.5,95.1667 60.5,92.8333 60.5,90.5C 60.3335,80.1613 60.5002,69.828 61,59.5C 62.5,56.6667 64.6667,54.5 67.5,53C 71.6092,52.0557 75.6092,51.2224 79.5,50.5C 86.5,52.1667 89.1667,49.5 87.5,42.5C 89.4832,42.1568 90.8166,42.8235 91.5,44.5 Z"/></g>
<g><path style="opacity:1" fill="#f00e4c" d="M 240.5,38.5 C 242.61,39.4525 243.777,41.1192 244,43.5C 244.497,45.8098 244.663,48.1432 244.5,50.5C 244.737,51.791 244.404,52.791 243.5,53.5C 242.419,49.0968 241.085,44.7635 239.5,40.5C 239.833,39.8333 240.167,39.1667 240.5,38.5 Z"/></g>
<g><path style="opacity:1" fill="#719ff9" d="M 72.5,17.5 C 78.2586,17.2143 83.9252,17.5476 89.5,18.5C 89.1943,22.3887 89.1943,26.0553 89.5,29.5C 88.3433,32.984 87.01,36.3173 85.5,39.5C 85.631,38.7611 85.4643,38.0944 85,37.5C 82.1318,39.0348 79.9651,41.2015 78.5,44C 72.0199,44.1187 66.0199,45.7854 60.5,49C 55.6818,54.3186 50.6818,59.4853 45.5,64.5C 44.7695,67.1092 44.2695,69.7759 44,72.5C 42.377,75.407 40.2103,76.407 37.5,75.5C 37.3404,73.847 36.6737,72.5137 35.5,71.5C 35.1667,70.1667 34.8333,68.8333 34.5,67.5C 36.371,67.1412 37.871,66.1412 39,64.5C 41.6279,59.6037 44.7945,55.1037 48.5,51C 53.5347,48.6593 58.5347,46.3259 63.5,44C 65.31,41.3557 67.31,38.8557 69.5,36.5C 64.5797,31.3726 58.5797,29.0393 51.5,29.5C 53.2646,28.5386 55.2646,28.2053 57.5,28.5C 57.5,27.1667 57.5,25.8333 57.5,24.5C 61.253,19.7933 66.253,17.4599 72.5,17.5 Z"/></g>
<g><path style="opacity:1" fill="#faa00e" d="M 243.5,35.5 C 245.694,37.2214 246.861,39.5547 247,42.5C 247.333,46.8333 247.667,51.1667 248,55.5C 251.845,56.3614 254.178,54.6947 255,50.5C 256.33,51.5822 257.83,52.2488 259.5,52.5C 262.728,54.0264 265.394,53.3597 267.5,50.5C 266.097,49.5244 264.097,48.5244 261.5,47.5C 265.665,47.1269 269.332,48.1269 272.5,50.5C 269.479,54.1877 266.146,57.5211 262.5,60.5C 257.354,59.4486 252.021,58.7819 246.5,58.5C 243.314,57.6621 240.147,56.6621 237,55.5C 235.316,55.6834 235.15,56.3501 236.5,57.5C 230.395,54.9462 224.728,51.6128 219.5,47.5C 219.808,46.6919 220.308,46.0253 221,45.5C 223.333,47.1667 225.667,48.8333 228,50.5C 228.383,49.944 228.883,49.6107 229.5,49.5C 231.487,50.1642 233.154,51.3308 234.5,53C 237.623,54.3509 240.623,54.5176 243.5,53.5C 244.404,52.791 244.737,51.791 244.5,50.5C 245.927,45.4988 245.594,40.4988 243.5,35.5 Z"/></g>
<g><path style="opacity:1" fill="#bd1a4c" d="M 227.5,42.5 C 227.833,43.5 228.5,44.1667 229.5,44.5C 229.511,46.0174 230.177,47.1841 231.5,48C 235.729,49.5409 239.729,51.3742 243.5,53.5C 240.623,54.5176 237.623,54.3509 234.5,53C 233.154,51.3308 231.487,50.1642 229.5,49.5C 227.493,48.4814 226.16,46.8147 225.5,44.5C 225.855,43.4777 226.522,42.811 227.5,42.5 Z"/></g>
<g><path style="opacity:1" fill="#ffedcb" d="M 262.5,50.5 C 264.167,50.5 265.833,50.5 267.5,50.5C 265.394,53.3597 262.728,54.0264 259.5,52.5C 260.5,51.8333 261.5,51.1667 262.5,50.5 Z"/></g>
<g><path style="opacity:1" fill="#fd9b08" d="M 238.5,61.5 C 235.642,61.5954 233.309,62.7621 231.5,65C 232.056,65.3826 232.389,65.8826 232.5,66.5C 231.833,66.5 231.167,66.5 230.5,66.5C 227.328,64.7481 224.328,62.7481 221.5,60.5C 221.918,57.9104 222.918,55.5771 224.5,53.5C 229.229,56.1938 233.896,58.8604 238.5,61.5 Z"/></g>
<g><path style="opacity:1" fill="#7b88bf" d="M 34.5,20.5 C 22.6308,31.9242 12.9641,44.9242 5.5,59.5C 4.50797,66.9818 4.17464,74.6484 4.5,82.5C 4.5,83.1667 4.5,83.8333 4.5,84.5C 4.16667,84.5 3.83333,84.5 3.5,84.5C 2.59974,76.8381 2.09974,69.1715 2,61.5C 9.86004,46.3007 20.0267,32.8007 32.5,21C 33.0944,20.5357 33.7611,20.369 34.5,20.5 Z"/></g>
<g><path style="opacity:1" fill="#f45ae8" d="M 209.5,52.5 C 213.228,55.5589 217.228,58.2256 221.5,60.5C 224.328,62.7481 227.328,64.7481 230.5,66.5C 229.833,66.5 229.5,66.8333 229.5,67.5C 216.491,59.9156 202.491,57.0823 187.5,59C 172.815,63.8493 163.482,73.6826 159.5,88.5C 159.631,87.7611 159.464,87.0944 159,86.5C 157.333,88.8333 155.667,91.1667 154,93.5C 153.506,91.8659 153.34,90.1992 153.5,88.5C 154.319,86.2278 154.985,83.8945 155.5,81.5C 165.665,57.7444 183.665,48.0778 209.5,52.5 Z"/></g>
<g><path style="opacity:1" fill="#fed50b" d="M 246.5,58.5 C 246.5,58.8333 246.5,59.1667 246.5,59.5C 247.694,60.2719 248.694,61.2719 249.5,62.5C 248.833,62.5 248.167,62.5 247.5,62.5C 243.646,61.0698 239.979,59.4031 236.5,57.5C 235.15,56.3501 235.316,55.6834 237,55.5C 240.147,56.6621 243.314,57.6621 246.5,58.5 Z"/></g>
<g><path style="opacity:1" fill="#ed6de9" d="M 145.5,70.5 C 146.822,72.3111 147.322,74.3111 147,76.5C 144.749,75.5877 142.583,74.5877 140.5,73.5C 139.5,72.8333 138.5,72.1667 137.5,71.5C 132.621,64.8837 125.954,61.0504 117.5,60C 102.066,59.064 86.7329,59.8973 71.5,62.5C 71.5,92.1667 71.5,121.833 71.5,151.5C 70.5098,145.355 70.1765,139.022 70.5,132.5C 70.5,125.833 70.5,119.167 70.5,112.5C 70.6666,97.4963 70.4999,82.4963 70,67.5C 69.1502,69.01 68.3169,70.51 67.5,72C 66.5547,90.4709 65.888,108.971 65.5,127.5C 65.5,135.833 65.5,144.167 65.5,152.5C 64.8334,137.67 64.5001,122.67 64.5,107.5C 64.3477,91.7442 64.8477,76.0776 66,60.5C 67.6374,58.1898 69.804,56.6898 72.5,56C 86.7459,53.5276 101.079,52.5276 115.5,53C 128.505,53.9924 138.505,59.8258 145.5,70.5 Z"/></g>
<g><path style="opacity:1" fill="#7df4fe" d="M 137.5,71.5 C 131.943,67.0574 125.61,64.2241 118.5,63C 104.055,62.0323 89.7216,62.8657 75.5,65.5C 74.6832,94.0231 74.3499,122.69 74.5,151.5C 73.5,151.5 72.5,151.5 71.5,151.5C 71.5,121.833 71.5,92.1667 71.5,62.5C 86.7329,59.8973 102.066,59.064 117.5,60C 125.954,61.0504 132.621,64.8837 137.5,71.5 Z"/></g>
<g><path style="opacity:1" fill="#eb600f" d="M 246.5,59.5 C 246.5,59.1667 246.5,58.8333 246.5,58.5C 252.021,58.7819 257.354,59.4486 262.5,60.5C 262.5,61.1667 262.167,61.5 261.5,61.5C 258.833,62.8333 256.167,62.8333 253.5,61.5C 251.254,60.5448 248.921,59.8782 246.5,59.5 Z"/></g>
<g><path style="opacity:1" fill="#f8fdfe" d="M 229.5,69.5 C 227.731,74.8283 225.398,79.8283 222.5,84.5C 214.671,78.5503 206.004,76.5503 196.5,78.5C 190.443,80.7307 186.61,85.064 185,91.5C 184.304,94.4781 183.804,97.4781 183.5,100.5C 181.14,102.713 179.306,105.379 178,108.5C 176.846,109.743 175.512,110.743 174,111.5C 167.394,107.599 163.894,101.932 163.5,94.5C 167.781,69.7299 182.447,58.8966 207.5,62C 215.337,63.2228 222.67,65.7228 229.5,69.5 Z"/></g>
<g><path style="opacity:1" fill="#fed804" d="M 238.5,61.5 C 241.112,62.3705 243.779,63.0372 246.5,63.5C 247.568,64.4345 248.901,64.7678 250.5,64.5C 250.528,66.5824 249.861,68.4157 248.5,70C 245.469,70.4954 242.469,70.3287 239.5,69.5C 238.167,69.1667 236.833,68.8333 235.5,68.5C 234.29,68.0679 233.29,67.4013 232.5,66.5C 232.389,65.8826 232.056,65.3826 231.5,65C 233.309,62.7621 235.642,61.5954 238.5,61.5 Z"/></g>
<g><path style="opacity:1" fill="#fff5c7" d="M 246.5,59.5 C 248.921,59.8782 251.254,60.5448 253.5,61.5C 252.432,62.4345 251.099,62.7678 249.5,62.5C 248.694,61.2719 247.694,60.2719 246.5,59.5 Z"/></g>
<g><path style="opacity:1" fill="#f8fdfe" d="M 137.5,71.5 C 138.5,72.1667 139.5,72.8333 140.5,73.5C 141.11,75.4341 142.11,77.1007 143.5,78.5C 145.441,83.662 146.775,88.9954 147.5,94.5C 147.818,99.0323 147.485,103.366 146.5,107.5C 146.665,104.482 146.498,101.482 146,98.5C 143.601,102.567 140.268,105.567 136,107.5C 134.775,107.138 133.609,106.638 132.5,106C 130.68,102.686 128.346,99.8525 125.5,97.5C 123.851,82.1899 115.518,75.8565 100.5,78.5C 99.0813,79.4511 97.4147,79.7845 95.5,79.5C 94.8336,83.6845 94.1669,88.0178 93.5,92.5C 90.2292,96.0889 86.2292,97.2556 81.5,96C 79.6089,94.5576 77.6089,93.3909 75.5,92.5C 75.5,83.5 75.5,74.5 75.5,65.5C 89.7216,62.8657 104.055,62.0323 118.5,63C 125.61,64.2241 131.943,67.0574 137.5,71.5 Z"/></g>
<g><path style="opacity:1" fill="#84f4ff" d="M 30.5,63.5 C 30.8333,63.5 31.1667,63.5 31.5,63.5C 32.3797,70.1491 32.5464,76.8157 32,83.5C 30.1917,85.3959 28.025,85.8959 25.5,85C 20.6887,82.3508 16.6887,78.8508 13.5,74.5C 6.3707,65.1751 8.70404,60.5084 20.5,60.5C 24.2564,60.3095 27.5898,61.3095 30.5,63.5 Z"/></g>
<g><path style="opacity:1" fill="#78c1fe" d="M 29.5,59.5 C 29.8333,60.8333 30.1667,62.1667 30.5,63.5C 27.5898,61.3095 24.2564,60.3095 20.5,60.5C 8.70404,60.5084 6.3707,65.1751 13.5,74.5C 11.1002,77.9031 8.10019,80.5698 4.5,82.5C 4.17464,74.6484 4.50797,66.9818 5.5,59.5C 7.83333,60.8333 10.1667,60.8333 12.5,59.5C 15.5504,58.7054 18.5504,57.7054 21.5,56.5C 23.8584,58.2866 26.525,59.2866 29.5,59.5 Z"/></g>
<g><path style="opacity:1" fill="#f18b1d" d="M 253.5,61.5 C 256.167,62.8333 258.833,62.8333 261.5,61.5C 258.51,64.3424 256.01,67.6757 254,71.5C 252.89,73.0368 251.39,73.7035 249.5,73.5C 247.299,72.4336 244.965,71.767 242.5,71.5C 241.29,71.0679 240.29,70.4013 239.5,69.5C 242.469,70.3287 245.469,70.4954 248.5,70C 249.861,68.4157 250.528,66.5824 250.5,64.5C 248.901,64.7678 247.568,64.4345 246.5,63.5C 247.167,63.5 247.5,63.1667 247.5,62.5C 248.167,62.5 248.833,62.5 249.5,62.5C 251.099,62.7678 252.432,62.4345 253.5,61.5 Z"/></g>
<g><path style="opacity:1" fill="#4c5cc3" d="M 59.5,90.5 C 56.779,90.0372 54.1123,89.3705 51.5,88.5C 49.7857,87.2616 47.7857,86.595 45.5,86.5C 45.5,85.8333 45.1667,85.5 44.5,85.5C 49.0537,80.4426 53.8871,75.4426 59,70.5C 59.4996,77.1583 59.6663,83.825 59.5,90.5 Z"/></g>
<g><path style="opacity:1" fill="#87e3f2" d="M 196.5,78.5 C 206.004,76.5503 214.671,78.5503 222.5,84.5C 222.44,85.0431 222.107,85.3764 221.5,85.5C 213.893,80.5192 205.56,78.1859 196.5,78.5 Z"/></g>
<g><path style="opacity:1" fill="#94339e" d="M 148.5,73.5 C 151.55,75.5491 153.883,78.2157 155.5,81.5C 154.985,83.8945 154.319,86.2278 153.5,88.5C 153.167,88.5 152.833,88.5 152.5,88.5C 151.981,83.2778 150.648,78.2778 148.5,73.5 Z"/></g>
<g><path style="opacity:1" fill="#a6318c" d="M 229.5,69.5 C 230.598,70.6009 230.765,71.9343 230,73.5C 228.167,77.8333 226.333,82.1667 224.5,86.5C 223.277,87.6139 221.944,87.7805 220.5,87C 213.365,82.7288 205.698,80.7288 197.5,81C 191.408,83.5861 187.741,88.0861 186.5,94.5C 185.298,101.684 185.298,109.018 186.5,116.5C 186.5,117.167 186.5,117.833 186.5,118.5C 184.532,112.801 183.532,106.801 183.5,100.5C 183.804,97.4781 184.304,94.4781 185,91.5C 186.61,85.064 190.443,80.7307 196.5,78.5C 205.56,78.1859 213.893,80.5192 221.5,85.5C 222.107,85.3764 222.44,85.0431 222.5,84.5C 225.398,79.8283 227.731,74.8283 229.5,69.5 Z"/></g>
<g><path style="opacity:1" fill="#8ad6ff" d="M 31.5,63.5 C 32.5,64.8333 33.5,66.1667 34.5,67.5C 34.8333,68.8333 35.1667,70.1667 35.5,71.5C 36.5912,75.6148 37.5912,79.7815 38.5,84C 38.3248,85.6581 37.6582,86.9914 36.5,88C 29.7324,90.7774 22.7324,91.7774 15.5,91C 11.4452,89.4356 7.77856,87.2689 4.5,84.5C 4.5,83.8333 4.5,83.1667 4.5,82.5C 8.10019,80.5698 11.1002,77.9031 13.5,74.5C 16.6887,78.8508 20.6887,82.3508 25.5,85C 28.025,85.8959 30.1917,85.3959 32,83.5C 32.5464,76.8157 32.3797,70.1491 31.5,63.5 Z"/></g>
<g><path style="opacity:1" fill="#eb31c8" d="M 145.5,70.5 C 146.833,71.1667 147.833,72.1667 148.5,73.5C 150.648,78.2778 151.981,83.2778 152.5,88.5C 152.66,90.1992 152.494,91.8659 152,93.5C 148.04,88.9104 145.707,83.5771 145,77.5C 144.617,78.056 144.117,78.3893 143.5,78.5C 142.11,77.1007 141.11,75.4341 140.5,73.5C 142.583,74.5877 144.749,75.5877 147,76.5C 147.322,74.3111 146.822,72.3111 145.5,70.5 Z"/></g>
<g><path style="opacity:1" fill="#ea34cf" d="M 230.5,66.5 C 231.167,66.5 231.833,66.5 232.5,66.5C 233.29,67.4013 234.29,68.0679 235.5,68.5C 233.632,74.5763 231.466,80.5763 229,86.5C 226.72,90.7684 223.22,92.2684 218.5,91C 197.035,78.2701 187.702,84.4368 190.5,109.5C 189.675,105.353 189.175,101.019 189,96.5C 188.667,98.1667 188.333,99.8333 188,101.5C 187.338,99.1873 186.838,96.854 186.5,94.5C 187.741,88.0861 191.408,83.5861 197.5,81C 205.698,80.7288 213.365,82.7288 220.5,87C 221.944,87.7805 223.277,87.6139 224.5,86.5C 226.333,82.1667 228.167,77.8333 230,73.5C 230.765,71.9343 230.598,70.6009 229.5,69.5C 229.5,68.8333 229.5,68.1667 229.5,67.5C 229.5,66.8333 229.833,66.5 230.5,66.5 Z"/></g>
<g><path style="opacity:1" fill="#e12bc3" d="M 70.5,112.5 C 67.9103,116.693 66.9103,121.36 67.5,126.5C 66.8333,126.833 66.1667,127.167 65.5,127.5C 65.888,108.971 66.5547,90.4709 67.5,72C 68.3169,70.51 69.1502,69.01 70,67.5C 70.4999,82.4963 70.6666,97.4963 70.5,112.5 Z"/></g>
<g><path style="opacity:1" fill="#892c9d" d="M 235.5,68.5 C 236.833,68.8333 238.167,69.1667 239.5,69.5C 240.29,70.4013 241.29,71.0679 242.5,71.5C 244.347,74.5943 244.847,77.9277 244,81.5C 241.804,86.4203 239.804,91.4203 238,96.5C 235.293,100.035 231.793,101.202 227.5,100C 222.097,96.6439 216.264,94.4772 210,93.5C 204.485,94.0128 201.151,97.0128 200,102.5C 199.5,109.492 199.334,116.492 199.5,123.5C 197.83,123.249 196.33,122.582 195,121.5C 192.646,117.798 191.146,113.798 190.5,109.5C 187.702,84.4368 197.035,78.2701 218.5,91C 223.22,92.2684 226.72,90.7684 229,86.5C 231.466,80.5763 233.632,74.5763 235.5,68.5 Z"/></g>
<g><path style="opacity:1" fill="#c9dafa" d="M 35.5,71.5 C 36.6737,72.5137 37.3404,73.847 37.5,75.5C 39.0875,79.4101 41.4208,82.7435 44.5,85.5C 45.1667,85.5 45.5,85.8333 45.5,86.5C 35.3371,89.629 25.0037,92.629 14.5,95.5C 11.4435,93.8821 8.61016,91.8821 6,89.5C 5.53566,90.0944 5.36899,90.7611 5.5,91.5C 4.7321,89.2854 4.06543,86.9521 3.5,84.5C 3.83333,84.5 4.16667,84.5 4.5,84.5C 7.77856,87.2689 11.4452,89.4356 15.5,91C 22.7324,91.7774 29.7324,90.7774 36.5,88C 37.6582,86.9914 38.3248,85.6581 38.5,84C 37.5912,79.7815 36.5912,75.6148 35.5,71.5 Z"/></g>
<g><path style="opacity:1" fill="#5e94da" d="M 45.5,86.5 C 47.7857,86.595 49.7857,87.2616 51.5,88.5C 51.0618,88.4346 50.7284,88.6012 50.5,89C 52.6175,90.0491 54.2842,91.5491 55.5,93.5C 55.5,95.1667 55.5,96.8333 55.5,98.5C 46.8333,98.5 38.1667,98.5 29.5,98.5C 22.7943,98.5523 16.1276,98.0523 9.5,97C 7.07179,95.9817 5.73846,94.1483 5.5,91.5C 5.36899,90.7611 5.53566,90.0944 6,89.5C 8.61016,91.8821 11.4435,93.8821 14.5,95.5C 25.0037,92.629 35.3371,89.629 45.5,86.5 Z"/></g>
<g><path style="opacity:1" fill="#96e6f4" d="M 51.5,88.5 C 54.1123,89.3705 56.779,90.0372 59.5,90.5C 59.8333,90.5 60.1667,90.5 60.5,90.5C 60.5,92.8333 60.5,95.1667 60.5,97.5C 59.1667,97.5 57.8333,97.5 56.5,97.5C 56.7678,95.901 56.4345,94.5676 55.5,93.5C 54.2842,91.5491 52.6175,90.0491 50.5,89C 50.7284,88.6012 51.0618,88.4346 51.5,88.5 Z"/></g>
<g><path style="opacity:1" fill="#cf1e9f" d="M 152.5,88.5 C 152.833,88.5 153.167,88.5 153.5,88.5C 153.34,90.1992 153.506,91.8659 154,93.5C 155.667,91.1667 157.333,88.8333 159,86.5C 159.464,87.0944 159.631,87.7611 159.5,88.5C 158.698,95.8042 158.365,103.138 158.5,110.5C 156.896,109.713 156.229,108.38 156.5,106.5C 153.763,106.401 151.096,106.735 148.5,107.5C 148.818,102.968 148.485,98.6344 147.5,94.5C 146.775,88.9954 145.441,83.662 143.5,78.5C 144.117,78.3893 144.617,78.056 145,77.5C 145.707,83.5771 148.04,88.9104 152,93.5C 152.494,91.8659 152.66,90.1992 152.5,88.5 Z"/></g>
<g><path style="opacity:1" fill="#ba17bc" d="M 158.5,110.5 C 159.828,115.813 161.162,121.146 162.5,126.5C 162.736,129.609 162.403,132.609 161.5,135.5C 160.599,134.71 159.932,133.71 159.5,132.5C 155.642,126.063 153.475,119.063 153,111.5C 151.055,121.053 147.221,129.72 141.5,137.5C 140.833,137.833 140.167,138.167 139.5,138.5C 138.89,137.609 138.557,136.609 138.5,135.5C 144.392,127.161 147.726,117.828 148.5,107.5C 151.096,106.735 153.763,106.401 156.5,106.5C 156.229,108.38 156.896,109.713 158.5,110.5 Z"/></g>
<g><path style="opacity:1" fill="#c2f5fe" d="M 125.5,97.5 C 128.346,99.8525 130.68,102.686 132.5,106C 133.609,106.638 134.775,107.138 136,107.5C 140.268,105.567 143.601,102.567 146,98.5C 146.498,101.482 146.665,104.482 146.5,107.5C 146.442,112.394 145.442,117.061 143.5,121.5C 140.23,123.101 137.563,125.434 135.5,128.5C 131.834,129.886 128.168,130.219 124.5,129.5C 124.167,127.167 123.833,124.833 123.5,122.5C 125.05,114.26 125.716,105.927 125.5,97.5 Z"/></g>
<g><path style="opacity:1" fill="#a611af" d="M 70.5,112.5 C 70.5,119.167 70.5,125.833 70.5,132.5C 68.9081,131.398 68.0748,132.065 68,134.5C 67.5026,131.854 67.3359,129.187 67.5,126.5C 66.9103,121.36 67.9103,116.693 70.5,112.5 Z"/></g>
<g><path style="opacity:1" fill="#8bedfd" d="M 75.5,65.5 C 75.5,74.5 75.5,83.5 75.5,92.5C 75.5,99.5 75.5,106.5 75.5,113.5C 75.335,116.85 75.5017,120.183 76,123.5C 77.6156,127.347 78.6156,131.347 79,135.5C 82.3096,140.085 86.8096,141.585 92.5,140C 92.7927,136.263 92.9594,132.43 93,128.5C 93.3333,128.167 93.6667,127.833 94,127.5C 94.2784,128.416 94.7784,129.082 95.5,129.5C 95.8333,129.5 96.1667,129.5 96.5,129.5C 111.268,130.06 119.601,123.06 121.5,108.5C 121.666,102.824 121.499,97.1569 121,91.5C 120.33,88.8261 119.163,86.4927 117.5,84.5C 112.925,79.7506 107.258,77.7506 100.5,78.5C 115.518,75.8565 123.851,82.1899 125.5,97.5C 125.716,105.927 125.05,114.26 123.5,122.5C 123.833,124.833 124.167,127.167 124.5,129.5C 128.168,130.219 131.834,129.886 135.5,128.5C 137.563,125.434 140.23,123.101 143.5,121.5C 137.109,136.363 125.775,145.196 109.5,148C 97.1047,149.106 84.7714,150.606 72.5,152.5C 71.8333,152.5 71.5,152.167 71.5,151.5C 72.5,151.5 73.5,151.5 74.5,151.5C 74.3499,122.69 74.6832,94.0231 75.5,65.5 Z"/></g>
<g><path style="opacity:1" fill="#ac1ab1" d="M 121.5,108.5 C 119.601,123.06 111.268,130.06 96.5,129.5C 96.5,122.833 96.5,116.167 96.5,109.5C 97.2538,113.76 98.2538,118.094 99.5,122.5C 100.995,123.705 102.328,123.705 103.5,122.5C 106.48,121.677 109.147,120.343 111.5,118.5C 113.794,115.63 115.128,112.297 115.5,108.5C 117.5,108.5 119.5,108.5 121.5,108.5 Z"/></g>
<g><path style="opacity:1" fill="#d1f8fe" d="M 95.5,79.5 C 95.5,84.5 95.5,89.5 95.5,94.5C 94.6717,100.987 94.1717,107.654 94,114.5C 91.6227,118.088 89.1227,121.588 86.5,125C 84.6332,125.711 83.1332,125.211 82,123.5C 80.5315,119.523 78.3648,116.19 75.5,113.5C 75.5,106.5 75.5,99.5 75.5,92.5C 77.6089,93.3909 79.6089,94.5576 81.5,96C 86.2292,97.2556 90.2292,96.0889 93.5,92.5C 94.1669,88.0178 94.8336,83.6845 95.5,79.5 Z"/></g>
<g><path style="opacity:1" fill="#f9f0f9" d="M 115.5,94.5 C 115.5,99.1667 115.5,103.833 115.5,108.5C 115.128,112.297 113.794,115.63 111.5,118.5C 110.508,110.684 110.174,102.684 110.5,94.5C 112.167,94.5 113.833,94.5 115.5,94.5 Z"/></g>
<g><path style="opacity:1" fill="#82239a" d="M 115.5,94.5 C 113.833,94.5 112.167,94.5 110.5,94.5C 110.174,102.684 110.508,110.684 111.5,118.5C 109.147,120.343 106.48,121.677 103.5,122.5C 101.52,110.211 100.853,97.5441 101.5,84.5C 109.256,83.5973 113.922,86.9307 115.5,94.5 Z"/></g>
<g><path style="opacity:1" fill="#e12ac3" d="M 117.5,84.5 C 119.163,86.4927 120.33,88.8261 121,91.5C 121.499,97.1569 121.666,102.824 121.5,108.5C 119.5,108.5 117.5,108.5 115.5,108.5C 115.5,103.833 115.5,99.1667 115.5,94.5C 113.922,86.9307 109.256,83.5973 101.5,84.5C 100.853,97.5441 101.52,110.211 103.5,122.5C 102.328,123.705 100.995,123.705 99.5,122.5C 98.2538,118.094 97.2538,113.76 96.5,109.5C 96.5,100.167 96.5,90.8333 96.5,81.5C 103.791,80.8503 110.791,81.8503 117.5,84.5 Z"/></g>
<g><path style="opacity:1" fill="#93217c" d="M 100.5,78.5 C 107.258,77.7506 112.925,79.7506 117.5,84.5C 110.791,81.8503 103.791,80.8503 96.5,81.5C 96.5,90.8333 96.5,100.167 96.5,109.5C 96.5,116.167 96.5,122.833 96.5,129.5C 96.1667,129.5 95.8333,129.5 95.5,129.5C 95.5,117.833 95.5,106.167 95.5,94.5C 95.5,89.5 95.5,84.5 95.5,79.5C 97.4147,79.7845 99.0813,79.4511 100.5,78.5 Z"/></g>
<g><path style="opacity:1" fill="#ca1bc7" d="M 186.5,94.5 C 186.838,96.854 187.338,99.1873 188,101.5C 188.333,99.8333 188.667,98.1667 189,96.5C 189.175,101.019 189.675,105.353 190.5,109.5C 191.146,113.798 192.646,117.798 195,121.5C 196.33,122.582 197.83,123.249 199.5,123.5C 202.116,124.052 204.783,124.386 207.5,124.5C 214.453,123.141 221.453,122.641 228.5,123C 230.373,124.704 232.04,126.537 233.5,128.5C 232.833,135.5 232.167,142.5 231.5,149.5C 231.821,144.305 231.487,139.305 230.5,134.5C 229.726,131.619 228.393,128.952 226.5,126.5C 218.197,126.138 209.863,125.972 201.5,126C 198.226,124.798 194.893,123.798 191.5,123C 189.97,120.648 188.303,118.481 186.5,116.5C 185.298,109.018 185.298,101.684 186.5,94.5 Z"/></g>
<g><path style="opacity:1" fill="#a11ab5" d="M 186.5,116.5 C 188.303,118.481 189.97,120.648 191.5,123C 194.893,123.798 198.226,124.798 201.5,126C 209.863,125.972 218.197,126.138 226.5,126.5C 228.393,128.952 229.726,131.619 230.5,134.5C 230.649,135.552 230.483,136.552 230,137.5C 229.95,135.256 229.117,133.589 227.5,132.5C 227.5,131.833 227.167,131.5 226.5,131.5C 226.516,129.516 225.516,128.516 223.5,128.5C 213.396,132.619 203.396,132.452 193.5,128C 191.63,125.96 189.63,124.127 187.5,122.5C 187.167,121.167 186.833,119.833 186.5,118.5C 186.5,117.833 186.5,117.167 186.5,116.5 Z"/></g>
<g><path style="opacity:1" fill="#aff1fe" d="M 95.5,94.5 C 95.5,106.167 95.5,117.833 95.5,129.5C 94.7784,129.082 94.2784,128.416 94,127.5C 93.6667,127.833 93.3333,128.167 93,128.5C 92.9594,132.43 92.7927,136.263 92.5,140C 86.8096,141.585 82.3096,140.085 79,135.5C 78.6156,131.347 77.6156,127.347 76,123.5C 75.5017,120.183 75.335,116.85 75.5,113.5C 78.3648,116.19 80.5315,119.523 82,123.5C 83.1332,125.211 84.6332,125.711 86.5,125C 89.1227,121.588 91.6227,118.088 94,114.5C 94.1717,107.654 94.6717,100.987 95.5,94.5 Z"/></g>
<g><path style="opacity:1" fill="#b5f3fe" d="M 163.5,94.5 C 163.894,101.932 167.394,107.599 174,111.5C 175.512,110.743 176.846,109.743 178,108.5C 179.306,105.379 181.14,102.713 183.5,100.5C 183.532,106.801 184.532,112.801 186.5,118.5C 186.833,119.833 187.167,121.167 187.5,122.5C 189.536,127.889 191.536,133.223 193.5,138.5C 187.829,138.888 182.496,137.721 177.5,135C 171.206,130.592 166.706,124.759 164,117.5C 162.577,109.69 162.41,102.024 163.5,94.5 Z"/></g>
<g><path style="opacity:1" fill="#7deafc" d="M 229.5,67.5 C 229.5,68.1667 229.5,68.8333 229.5,69.5C 222.67,65.7228 215.337,63.2228 207.5,62C 182.447,58.8966 167.781,69.7299 163.5,94.5C 162.41,102.024 162.577,109.69 164,117.5C 166.706,124.759 171.206,130.592 177.5,135C 182.496,137.721 187.829,138.888 193.5,138.5C 191.536,133.223 189.536,127.889 187.5,122.5C 189.63,124.127 191.63,125.96 193.5,128C 203.396,132.452 213.396,132.619 223.5,128.5C 225.516,128.516 226.516,129.516 226.5,131.5C 227.092,137.631 226.425,143.464 224.5,149C 211.754,151.243 199.087,150.909 186.5,148C 182.313,146.075 178.313,143.908 174.5,141.5C 169.74,137.077 165.74,132.077 162.5,126.5C 161.162,121.146 159.828,115.813 158.5,110.5C 158.365,103.138 158.698,95.8042 159.5,88.5C 163.482,73.6826 172.815,63.8493 187.5,59C 202.491,57.0823 216.491,59.9156 229.5,67.5 Z"/></g>
<g><path style="opacity:1" fill="#5d1177" d="M 159.5,132.5 C 156.92,137.088 153.92,141.421 150.5,145.5C 148.1,142.097 145.1,139.43 141.5,137.5C 147.221,129.72 151.055,121.053 153,111.5C 153.475,119.063 155.642,126.063 159.5,132.5 Z"/></g>
<g><path style="opacity:0.09" fill="#738890" d="M 55.5,93.5 C 56.4345,94.5676 56.7678,95.901 56.5,97.5C 57.8333,97.5 59.1667,97.5 60.5,97.5C 60.5,115.5 60.5,133.5 60.5,151.5C 59.5033,134.341 59.17,117.008 59.5,99.5C 49.3194,99.8274 39.3194,99.494 29.5,98.5C 38.1667,98.5 46.8333,98.5 55.5,98.5C 55.5,96.8333 55.5,95.1667 55.5,93.5 Z"/></g>
<g><path style="opacity:1" fill="#3e0257" d="M 141.5,137.5 C 145.1,139.43 148.1,142.097 150.5,145.5C 143.462,154.027 134.462,159.527 123.5,162C 108.579,164.658 93.5794,166.325 78.5,167C 75.6286,164.297 72.9619,161.464 70.5,158.5C 87.3959,157.472 104.063,154.972 120.5,151C 127.893,148.313 134.227,144.146 139.5,138.5C 140.167,138.167 140.833,137.833 141.5,137.5 Z"/></g>
<g><path style="opacity:1" fill="#40157d" d="M 226.5,131.5 C 227.167,131.5 227.5,131.833 227.5,132.5C 227.666,138.509 227.499,144.509 227,150.5C 210.224,155.614 194.058,154.114 178.5,146C 176.365,145.124 175.031,143.624 174.5,141.5C 178.313,143.908 182.313,146.075 186.5,148C 199.087,150.909 211.754,151.243 224.5,149C 226.425,143.464 227.092,137.631 226.5,131.5 Z"/></g>
<g><path style="opacity:1" fill="#460e7a" d="M 147.5,94.5 C 148.485,98.6344 148.818,102.968 148.5,107.5C 147.726,117.828 144.392,127.161 138.5,135.5C 132.08,142.046 124.413,146.546 115.5,149C 102.591,151.405 89.5908,153.239 76.5,154.5C 74.6672,154.415 73.3339,153.748 72.5,152.5C 84.7714,150.606 97.1047,149.106 109.5,148C 125.775,145.196 137.109,136.363 143.5,121.5C 145.442,117.061 146.442,112.394 146.5,107.5C 147.485,103.366 147.818,99.0323 147.5,94.5 Z"/></g>
<g><path style="opacity:1" fill="#6301be" d="M 67.5,126.5 C 67.3359,129.187 67.5026,131.854 68,134.5C 68.0748,132.065 68.9081,131.398 70.5,132.5C 70.1765,139.022 70.5098,145.355 71.5,151.5C 71.5,152.167 71.8333,152.5 72.5,152.5C 73.3339,153.748 74.6672,154.415 76.5,154.5C 89.5908,153.239 102.591,151.405 115.5,149C 124.413,146.546 132.08,142.046 138.5,135.5C 138.557,136.609 138.89,137.609 139.5,138.5C 134.227,144.146 127.893,148.313 120.5,151C 104.063,154.972 87.3959,157.472 70.5,158.5C 68.086,157.089 66.4194,155.089 65.5,152.5C 65.5,144.167 65.5,135.833 65.5,127.5C 66.1667,127.167 66.8333,126.833 67.5,126.5 Z"/></g>
<g><path style="opacity:1" fill="#6802c1" d="M 162.5,126.5 C 165.74,132.077 169.74,137.077 174.5,141.5C 175.031,143.624 176.365,145.124 178.5,146C 194.058,154.114 210.224,155.614 227,150.5C 227.499,144.509 227.666,138.509 227.5,132.5C 229.117,133.589 229.95,135.256 230,137.5C 230.483,136.552 230.649,135.552 230.5,134.5C 231.487,139.305 231.821,144.305 231.5,149.5C 230.977,151.708 229.644,153.208 227.5,154C 214.907,156.886 202.24,157.219 189.5,155C 183.839,153.505 178.506,151.339 173.5,148.5C 168.792,144.793 164.792,140.46 161.5,135.5C 162.403,132.609 162.736,129.609 162.5,126.5 Z"/></g>
<g><path style="opacity:1" fill="#400659" d="M 233.5,128.5 C 235.795,131.297 238.295,133.964 241,136.5C 241.667,143.833 241.667,151.167 241,158.5C 240.215,160.286 239.049,161.786 237.5,163C 225.684,166.765 213.684,167.432 201.5,165C 190.116,162.814 180.783,157.314 173.5,148.5C 178.506,151.339 183.839,153.505 189.5,155C 202.24,157.219 214.907,156.886 227.5,154C 229.644,153.208 230.977,151.708 231.5,149.5C 232.167,142.5 232.833,135.5 233.5,128.5 Z"/></g>
</svg>
